<?xml version="1.0" encoding="UTF-8"?>
<svg id="Layer_13" data-name="Layer 13" xmlns="http://www.w3.org/2000/svg" viewBox="0 0 16 16">
  <defs>
    <style>
      .cls-1 {
        fill: #ffdd14;
      }
    </style>
  </defs>
  <path d="M4.2,9.98h2.61c.09,.63,.39,1.14,.93,1.49,.4,.25,.84,.37,1.3,.31,1.12-.15,1.85-1.01,1.82-2.11-.02-.94-.82-1.81-1.75-1.92-1.14-.13-2.15,.61-2.32,1.79h-2.66c0-.47-.01-.94,0-1.4,.03-.86,.13-1.71,.36-2.54,.19-.7,.43-1.38,.9-1.95,.2-.25,.44-.46,.78-.48,.44-.03,.74,.21,.96,.57,.19,.31,.24,.66,.29,1.01,.12,.86,.75,1.51,1.62,1.62,1.5,.19,2.47,1.31,2.73,2.64,.19,.97,.07,1.9-.46,2.75-.62,.99-1.53,1.47-2.7,1.48-.36,0-.73,.06-1.08,.14-.17,.04-.34,.17-.47,.3-.37,.39-1.09,.42-1.56,.05-.33-.26-.53-.62-.69-1-.37-.88-.53-1.8-.62-2.75Z"/>
  <circle class="cls-1" cx="8.85" cy="9.77" r="1.48"/>
  <path class="cls-1" d="M5.4,2.01s3.45-.21,4.77,1.47c.4,.51,.49,1.2,.2,1.78-.22,.43-.67,.82-1.54,.62,0,0-.98-.24-.98-1.48,0,0,.07-2.09-2.45-2.38Z"/>
</svg>